<svg xmlns="http://www.w3.org/2000/svg" viewBox="0 0 41.68 33.87"><title>carBody</title><g id="Layer_2" data-name="Layer 2"><g id="Layer_1-2" data-name="Layer 1"><path d="M8.53,33.87H8.35A3,3,0,0,1,5.4,30.92v-3h6.08v3a3,3,0,0,1-3,2.95Zm-.18-1h.18a1.95,1.95,0,0,0,1.94-1.94v-2H6.4v2a2,2,0,0,0,1.95,1.94Z" fill="#4a4a4a"/><path d="M33.92,33.85h-.18a3,3,0,0,1-3-3v-3h6.08v3a3,3,0,0,1-2.95,3Zm-.18-1h.18a1.94,1.94,0,0,0,1.37-.57,2,2,0,0,0,.57-1.38v-2H31.8v2a2,2,0,0,0,.57,1.38,1.94,1.94,0,0,0,1.37.57Z" fill="#4a4a4a"/><path d="M10.45,0H30.78a2.71,2.71,0,0,1,2,.84A5,5,0,0,1,34,3.08l2.34,8.39,5.17,4.86a.49.49,0,0,1,.15.36h0v8a4.23,4.23,0,0,1-4.21,4.2h-33a4.22,4.22,0,0,1-4.2-4.2v-8a.53.53,0,0,1,.18-.39l5-4.81L7.25,3.11A4.55,4.55,0,0,1,8.39.86,2.84,2.84,0,0,1,10.45,0ZM30.78,1H10.45a1.85,1.85,0,0,0-1.35.56,3.54,3.54,0,0,0-.87,1.75L6.37,11.85h0a.51.51,0,0,1-.14.26L1.28,16.9v7.84a3.21,3.21,0,0,0,3.2,3.19h33a3.21,3.21,0,0,0,3.2-3.19V16.91L35.53,12.1a.59.59,0,0,1-.14-.23L33,3.35a4.12,4.12,0,0,0-.94-1.8A1.78,1.78,0,0,0,30.78,1Z" fill="#4a4a4a"/><path d="M12.37,3.4H29.29c.9,0,1.43.75,1.63,1.63l1.62,6.83L9.29,11.75,10.74,5c.19-.88.74-1.63,1.63-1.63Z" fill="#00b4ff" fill-rule="evenodd"/><path d="M12.37,2.89H29.29a1.89,1.89,0,0,1,1.37.57,3,3,0,0,1,.75,1.45l1.77,7.45L8.66,12.25l1.59-7.33A2.91,2.91,0,0,1,11,3.47a1.9,1.9,0,0,1,1.38-.58Zm16.92,1H12.37a1,1,0,0,0-.67.28,2,2,0,0,0-.47,1L9.91,11.25l22,.1L30.43,5.14a2,2,0,0,0-.48-1,.91.91,0,0,0-.66-.28Z" fill="#00b4ff"/><path d="M33.2,12.37h0L8.65,12.26v0l1.59-7.32A2.9,2.9,0,0,1,11,3.46a1.9,1.9,0,0,1,1.39-.58H29.29a1.88,1.88,0,0,1,1.38.57,3.18,3.18,0,0,1,.76,1.46ZM8.68,12.23l24.48.12L31.4,4.91a3,3,0,0,0-.75-1.44,1.88,1.88,0,0,0-1.36-.56H12.37A1.87,1.87,0,0,0,11,3.48a2.91,2.91,0,0,0-.74,1.44Zm23.24-.86h0l-22-.11h0l1.33-6.12a1.93,1.93,0,0,1,.47-1,.94.94,0,0,1,.68-.29H29.29a.92.92,0,0,1,.67.29,2,2,0,0,1,.49,1Zm-22-.14,22,.11L30.42,5.15a1.93,1.93,0,0,0-.48-1,.9.9,0,0,0-.65-.28H12.37a.94.94,0,0,0-.66.28,2,2,0,0,0-.46.95Z" fill="#00b4ff"/><path d="M13.68,17.38H28.44a2.1,2.1,0,0,1,1.5.63,2.12,2.12,0,0,1,.63,1.51v4.4a2.15,2.15,0,0,1-2.13,2.13H13.68a2.12,2.12,0,0,1-1.51-.63,2.1,2.1,0,0,1-.63-1.5v-4.4a2.15,2.15,0,0,1,2.14-2.14Zm14.76,1H13.68a1.13,1.13,0,0,0-1.13,1.13v4.4A1.13,1.13,0,0,0,13.68,25H28.44a1.13,1.13,0,0,0,1.12-1.12v-4.4a1.13,1.13,0,0,0-1.12-1.13Z" fill="#4a4a4a"/><path d="M5.16,17.14H6.92a2.45,2.45,0,0,1,2.45,2.45v.68h-5V18a.82.82,0,0,1,.81-.82Z" fill="#fc0" fill-rule="evenodd"/><path d="M5.16,16.64H6.92a3,3,0,0,1,2.95,2.95v1.19h-6V18a1.31,1.31,0,0,1,1.31-1.32Zm1.76,1H5.16a.31.31,0,0,0-.22.09.34.34,0,0,0-.09.22v1.81h4v-.18a1.95,1.95,0,0,0-1.94-1.94Z" fill="#4a4a4a"/><path d="M4.29,22.89H8.68a1.23,1.23,0,0,1,1.23,1.23v1.31H4.29V22.89Z" fill="#fc0" fill-rule="evenodd"/><path d="M4.29,22.39H8.68a1.74,1.74,0,0,1,1.73,1.73v1.81H3.79V22.39Zm4.39,1H4.8v1.53H9.4v-.81a.72.72,0,0,0-.72-.72Z" fill="#4a4a4a"/><path d="M36.91,17.25H35.16a2.45,2.45,0,0,0-2.45,2.45v.68h5V18.07a.82.82,0,0,0-.82-.82Z" fill="#fc0" fill-rule="evenodd"/><path d="M36.91,17.75H35.16a2,2,0,0,0-1.95,1.95v.18h4V18.07a.34.34,0,0,0-.32-.32Zm-1.75-1h1.75a1.3,1.3,0,0,1,1.32,1.32v2.81h-6V19.7a2.94,2.94,0,0,1,2.95-2.95Z" fill="#4a4a4a"/><path d="M37.78,23H33.4a1.23,1.23,0,0,0-1.23,1.23v1.31h5.61V23Z" fill="#fc0" fill-rule="evenodd"/><path d="M37.28,23.5H33.4a.73.73,0,0,0-.51.22.72.72,0,0,0-.21.51V25h4.6V23.5Zm-3.88-1h4.89V26H31.67V24.23A1.71,1.71,0,0,1,33.4,22.5Z" fill="#4a4a4a"/><path d="M37,8.08h2.5a2.22,2.22,0,0,1,2.21,2.21,1.95,1.95,0,0,1-1.93,1.93h-4.1V9.4A1.33,1.33,0,0,1,37,8.08Zm2.5,1H37a.31.31,0,0,0-.22.09.36.36,0,0,0-.09.22v1.81h3.09a.88.88,0,0,0,.65-.27.91.91,0,0,0,.27-.65,1.2,1.2,0,0,0-1.2-1.2Z" fill="#4a4a4a"/><path d="M4.7,9H2.21A1.2,1.2,0,0,0,1,10.21a.91.91,0,0,0,.27.65.88.88,0,0,0,.65.27H5V9.32a.3.3,0,0,0-.1-.22A.28.28,0,0,0,4.7,9ZM2.21,8H4.7a1.32,1.32,0,0,1,.94.39A1.31,1.31,0,0,1,6,9.32v2.82H1.93A1.95,1.95,0,0,1,0,10.21,2.22,2.22,0,0,1,2.21,8Z" fill="#4a4a4a"/><polygon points="20.87 25.42 20.38 25.42 20.38 18.39 21.35 18.39 21.35 25.42 20.87 25.42 20.87 25.42" fill="#4a4a4a"/><polygon points="23.74 25.57 23.26 25.57 23.26 18.26 24.23 18.26 24.23 25.57 23.74 25.57 23.74 25.57" fill="#4a4a4a"/><polygon points="15.26 25.37 14.77 25.37 14.77 18.34 15.74 18.34 15.74 25.37 15.26 25.37 15.26 25.37" fill="#4a4a4a"/><polygon points="18.13 25.52 17.65 25.52 17.65 18.21 18.62 18.21 18.62 25.52 18.13 25.52 18.13 25.52" fill="#4a4a4a"/><polygon points="26.6 25.31 26.12 25.31 26.12 18.28 27.09 18.28 27.09 25.31 26.6 25.31 26.6 25.31" fill="#4a4a4a"/></g></g></svg>