<svg xmlns="http://www.w3.org/2000/svg" viewBox="0 0 307.2 329.63"><title>corporate-responsibility</title><g id="Layer_2" data-name="Layer 2"><g id="Layer_1-2" data-name="Layer 1"><path d="M60.65,28.19H218.41V325.63H60.65V28.19Zm59,230.87H159.4v66.57H119.65V259.06ZM218.49,105H303.2V325.63H218.49V105Z" fill="none" stroke="#4a4a4a" stroke-miterlimit="2.61" stroke-width="8"/><polygon points="112.44 107.09 120.19 107.09 120.19 99.35 112.44 99.35 112.44 107.09 112.44 107.09" fill="#4a4a4a"/><polygon points="112.44 122.59 120.19 122.59 120.19 114.84 112.44 114.84 112.44 122.59 112.44 122.59" fill="#00b4ff"/><polygon points="112.44 138.09 120.19 138.09 120.19 130.34 112.44 130.34 112.44 138.09 112.44 138.09" fill="#4a4a4a"/><polygon points="112.44 153.59 120.19 153.59 120.19 145.84 112.44 145.84 112.44 153.59 112.44 153.59" fill="#00b4ff"/><polygon points="127.94 107.09 135.69 107.09 135.69 99.35 127.94 99.35 127.94 107.09 127.94 107.09" fill="#00b4ff"/><polygon points="127.94 122.59 135.69 122.59 135.69 114.84 127.94 114.84 127.94 122.59 127.94 122.59" fill="#4a4a4a"/><polygon points="127.94 138.09 135.69 138.09 135.69 130.34 127.94 130.34 127.94 138.09 127.94 138.09" fill="#00b4ff"/><polygon points="127.94 153.59 135.69 153.59 135.69 145.84 127.94 145.84 127.94 153.59 127.94 153.59" fill="#4a4a4a"/><polygon points="143.44 107.09 151.18 107.09 151.18 99.35 143.44 99.35 143.44 107.09 143.44 107.09" fill="#4a4a4a"/><polygon points="143.44 122.59 151.18 122.59 151.18 114.84 143.44 114.84 143.44 122.59 143.44 122.59" fill="#00b4ff"/><polygon points="143.44 138.09 151.18 138.09 151.18 130.34 143.44 130.34 143.44 138.09 143.44 138.09" fill="#4a4a4a"/><polygon points="143.44 153.59 151.18 153.59 151.18 145.84 143.44 145.84 143.44 153.59 143.44 153.59" fill="#00b4ff"/><polygon points="158.93 107.09 166.68 107.09 166.68 99.35 158.93 99.35 158.93 107.09 158.93 107.09" fill="#00b4ff"/><polygon points="158.93 122.59 166.68 122.59 166.68 114.84 158.93 114.84 158.93 122.59 158.93 122.59" fill="#4a4a4a"/><polygon points="158.93 138.09 166.68 138.09 166.68 130.34 158.93 130.34 158.93 138.09 158.93 138.09" fill="#00b4ff"/><polygon points="158.93 153.59 166.68 153.59 166.68 145.84 158.93 145.84 158.93 153.59 158.93 153.59" fill="#4a4a4a"/><polygon points="174.43 107.09 182.18 107.09 182.18 99.35 174.43 99.35 174.43 107.09 174.43 107.09" fill="#4a4a4a"/><polygon points="174.43 122.59 182.18 122.59 182.18 114.84 174.43 114.84 174.43 122.59 174.43 122.59" fill="#00b4ff"/><polygon points="174.43 138.09 182.18 138.09 182.18 130.34 174.43 130.34 174.43 138.09 174.43 138.09" fill="#4a4a4a"/><polygon points="174.43 153.59 182.18 153.59 182.18 145.84 174.43 145.84 174.43 153.59 174.43 153.59" fill="#00b4ff"/><polygon points="112.44 168.29 120.19 168.29 120.19 160.55 112.44 160.55 112.44 168.29 112.44 168.29" fill="#4a4a4a"/><polygon points="112.44 183.79 120.19 183.79 120.19 176.04 112.44 176.04 112.44 183.79 112.44 183.79" fill="#00b4ff"/><polygon points="112.44 199.29 120.19 199.29 120.19 191.54 112.44 191.54 112.44 199.29 112.44 199.29" fill="#4a4a4a"/><polygon points="112.44 214.78 120.19 214.78 120.19 207.04 112.44 207.04 112.44 214.78 112.44 214.78" fill="#00b4ff"/><polygon points="127.94 168.29 135.69 168.29 135.69 160.55 127.94 160.55 127.94 168.29 127.94 168.29" fill="#00b4ff"/><polygon points="127.94 183.79 135.69 183.79 135.69 176.04 127.94 176.04 127.94 183.79 127.94 183.79" fill="#4a4a4a"/><polygon points="127.94 199.29 135.69 199.29 135.69 191.54 127.94 191.54 127.94 199.29 127.94 199.29" fill="#00b4ff"/><polygon points="127.94 214.78 135.69 214.78 135.69 207.04 127.94 207.04 127.94 214.78 127.94 214.78" fill="#4a4a4a"/><polygon points="143.44 168.29 151.18 168.29 151.18 160.55 143.44 160.55 143.44 168.29 143.44 168.29" fill="#4a4a4a"/><polygon points="143.44 183.79 151.18 183.79 151.18 176.04 143.44 176.04 143.44 183.79 143.44 183.79" fill="#00b4ff"/><polygon points="143.44 199.29 151.18 199.29 151.18 191.54 143.44 191.54 143.44 199.29 143.44 199.29" fill="#4a4a4a"/><polygon points="143.44 214.78 151.18 214.78 151.18 207.04 143.44 207.04 143.44 214.78 143.44 214.78" fill="#00b4ff"/><polygon points="158.93 168.29 166.68 168.29 166.68 160.55 158.93 160.55 158.93 168.29 158.93 168.29" fill="#00b4ff"/><polygon points="158.93 183.79 166.68 183.79 166.68 176.04 158.93 176.04 158.93 183.79 158.93 183.79" fill="#4a4a4a"/><polygon points="158.93 199.29 166.68 199.29 166.68 191.54 158.93 191.54 158.93 199.29 158.93 199.29" fill="#00b4ff"/><polygon points="158.93 214.78 166.68 214.78 166.68 207.04 158.93 207.04 158.93 214.78 158.93 214.78" fill="#4a4a4a"/><polygon points="174.43 168.29 182.18 168.29 182.18 160.55 174.43 160.55 174.43 168.29 174.43 168.29" fill="#4a4a4a"/><polygon points="174.43 183.79 182.18 183.79 182.18 176.04 174.43 176.04 174.43 183.79 174.43 183.79" fill="#00b4ff"/><polygon points="174.43 199.29 182.18 199.29 182.18 191.54 174.43 191.54 174.43 199.29 174.43 199.29" fill="#4a4a4a"/><polygon points="174.43 214.78 182.18 214.78 182.18 207.04 174.43 207.04 174.43 214.78 174.43 214.78" fill="#00b4ff"/><polygon points="96.84 107.14 104.59 107.14 104.59 99.39 96.84 99.39 96.84 107.14 96.84 107.14" fill="#00b4ff"/><polygon points="96.84 122.64 104.59 122.64 104.59 114.89 96.84 114.89 96.84 122.64 96.84 122.64" fill="#4a4a4a"/><polygon points="96.84 138.13 104.59 138.13 104.59 130.38 96.84 130.38 96.84 138.13 96.84 138.13" fill="#00b4ff"/><polygon points="96.84 153.63 104.59 153.63 104.59 145.88 96.84 145.88 96.84 153.63 96.84 153.63" fill="#4a4a4a"/><polygon points="96.84 168.34 104.59 168.34 104.59 160.59 96.84 160.59 96.84 168.34 96.84 168.34" fill="#00b4ff"/><polygon points="96.84 183.84 104.59 183.84 104.59 176.09 96.84 176.09 96.84 183.84 96.84 183.84" fill="#4a4a4a"/><polygon points="96.84 199.33 104.59 199.33 104.59 191.59 96.84 191.59 96.84 199.33 96.84 199.33" fill="#00b4ff"/><polygon points="96.84 214.83 104.59 214.83 104.59 207.08 96.84 207.08 96.84 214.83 96.84 214.83" fill="#4a4a4a"/><polygon points="245.21 282.89 252.96 282.89 252.96 153.29 245.21 153.29 245.21 282.89 245.21 282.89" fill="#fc0"/><polygon points="268.45 282.89 276.2 282.89 276.2 153.29 268.45 153.29 268.45 282.89 268.45 282.89" fill="#fc0"/><path d="M3.64,325.76v-.3a18.22,18.22,0,0,1,15.52-18v-.2a39.06,39.06,0,0,1,78.12,0c0,.89,0,1.77-.09,2.65a22.24,22.24,0,0,1,29.15,15.87Z" fill="#fc0" fill-rule="evenodd"/><path d="M0,325.81v-.35a21.9,21.9,0,0,1,15.6-20.94,42.7,42.7,0,0,1,85.26.72,25.87,25.87,0,0,1,29,19.71l1,4.45H.07l0-3.59ZM10.79,316a14.47,14.47,0,0,0-3.14,6.18H121.13a18.64,18.64,0,0,0-22.73-8.82l-5.2,1.86.36-5.51c0-.52.06-.93.07-1.22s0-.56,0-1.2a35.43,35.43,0,0,0-70.85,0h0l0,3.33-3.13.47A14.52,14.52,0,0,0,10.79,316Z" fill="#4a4a4a"/><path d="M78,4A62.63,62.63,0,1,1,15.34,66.63,62.63,62.63,0,0,1,78,4Z" fill="#fff" stroke="#4a4a4a" stroke-miterlimit="2.61" stroke-width="8" fill-rule="evenodd"/><path d="M55.14,37.16a14.32,14.32,0,1,1-13.8,14.31,14.06,14.06,0,0,1,13.8-14.31Z" fill="none" stroke="#4a4a4a" stroke-miterlimit="2.61" stroke-width="8"/><path d="M49,66.32H61.1A14.21,14.21,0,0,1,75.28,80.49v5.63H34.78V80.49A14.2,14.2,0,0,1,49,66.32Z" fill="#fff" stroke="#4a4a4a" stroke-miterlimit="2.61" stroke-width="8" fill-rule="evenodd"/><path d="M103.26,37.16a14.32,14.32,0,1,1-13.8,14.31,14.06,14.06,0,0,1,13.8-14.31ZM97.07,66.32h12.15A14.21,14.21,0,0,1,123.4,80.49v5.63H82.9V80.49A14.2,14.2,0,0,1,97.07,66.32Z" fill="none" stroke="#4a4a4a" stroke-miterlimit="2.61" stroke-width="8"/><path d="M72.65,76.52H84.8A14.21,14.21,0,0,1,99,90.69v5.63H58.48V90.69A14.2,14.2,0,0,1,72.65,76.52Z" fill="#fff" stroke="#4a4a4a" stroke-miterlimit="2.61" stroke-width="8" fill-rule="evenodd"/><path d="M78.84,47.64A14.32,14.32,0,1,1,65,62a14.06,14.06,0,0,1,13.8-14.31Z" fill="#00b4ff" stroke="#4a4a4a" stroke-miterlimit="2.61" stroke-width="8" fill-rule="evenodd"/></g></g></svg>