<svg xmlns="http://www.w3.org/2000/svg" viewBox="0 0 40.65 37.54"><title>earthquake</title><g id="Layer_2" data-name="Layer 2"><g id="Layer_1-2" data-name="Layer 1"><path d="M39,11.62V33.23a2,2,0,0,1-2,2.05H9.7a2,2,0,0,1-2-2.05V11.62h1V33.23A1.08,1.08,0,0,0,9.7,34.31H36.93a1.11,1.11,0,0,0,.76-.31,1.08,1.08,0,0,0,.32-.77V11.62Z" fill="#4a4a4a"/><polygon points="12.7 15.96 19.52 15.96 19.52 22.57 12.7 22.57 12.7 15.96 12.7 15.96" fill="#fc0" fill-rule="evenodd"/><path d="M12.7,15.47H20v7.59H12.21V15.47Zm6.34,1H13.18v5.65H19V16.44Z" fill="#4a4a4a"/><path d="M20.57,25.76h5.55v9.49h-6V25.76Zm4.58,1h-4.1v7.57h4.1V26.72Z" fill="#4a4a4a"/><polygon points="19.52 19.26 19.52 19.77 12.7 19.77 12.7 18.76 19.52 18.76 19.52 19.26 19.52 19.26" fill="#4a4a4a"/><polygon points="16.1 22.86 15.6 22.86 15.6 16.03 16.6 16.03 16.6 22.86 16.1 22.86 16.1 22.86" fill="#4a4a4a"/><path d="M27,15.51h7.3v7.58H26.49V15.51Zm6.34,1H27.46v5.65h5.86V16.48Z" fill="#4a4a4a"/><polygon points="33.8 19.3 33.8 19.81 26.98 19.81 26.98 18.8 33.8 18.8 33.8 19.3 33.8 19.3" fill="#4a4a4a"/><polygon points="30.38 22.9 29.88 22.9 29.88 16.07 30.88 16.07 30.88 22.9 30.38 22.9 30.38 22.9" fill="#4a4a4a"/><path d="M.48,37.05v0a2.43,2.43,0,0,1,2.06-2.39v0a5.18,5.18,0,1,1,10.36,0c0,.11,0,.23,0,.35a3,3,0,0,1,1-.17,3,3,0,0,1,2.87,2.27Z" fill="#00b4ff" fill-rule="evenodd"/><path d="M0,37.06v0H0a2.88,2.88,0,0,1,2.07-2.77,5.66,5.66,0,0,1,11.31.09,4.38,4.38,0,0,1,.51,0A3.41,3.41,0,0,1,16,35,3.46,3.46,0,0,1,17.23,37l.13.59H0v-.48Zm1.43-1.31a1.87,1.87,0,0,0-.41.82H16.07a2.46,2.46,0,0,0-2.18-1.31,3,3,0,0,0-.43,0,3.11,3.11,0,0,0-.41.11l-.69.25.05-.73a1.1,1.1,0,0,0,0-.16V34.6a4.7,4.7,0,1,0-9.4,0H3V35l-.42.06a2,2,0,0,0-1.18.65Z" fill="#4a4a4a"/><polygon points="31.57 8.2 31.09 8.04 33.58 0 34.54 0.3 32.05 8.34 31.57 8.2 31.57 8.2" fill="#00b4ff"/><polygon points="35.2 2.85 35.05 3.33 30.86 2.03 31.16 1.07 35.35 2.37 35.2 2.85 35.2 2.85" fill="#00b4ff"/><polygon points="35.33 5.06 35.18 5.54 30.98 4.24 31.28 3.28 35.48 4.58 35.33 5.06 35.33 5.06" fill="#00b4ff"/><path d="M6.53,7.71H40.65v4.13H6.12V7.71Zm33.29.83H6.94V11H39.82V8.54Z" fill="#4a4a4a"/><polygon points="32.54 35.16 30.68 28.85 33.2 28.02 32.67 26 34.04 28.41 31.74 29.41 33.59 34.77 32.54 35.16 32.54 35.16" fill="#4a4a4a" fill-rule="evenodd"/><path d="M32.51,35.17l-1.87-6.34L33.15,28l-.51-2,.06,0,1.39,2.44-2.3,1,1.84,5.37-1.11.4v0Zm-1.79-6.3,1.84,6.24,1-.36L31.7,29.39l2.29-1-1.22-2.14L33.24,28l-2.52.83Z" fill="#4a4a4a"/></g></g></svg>