<svg xmlns="http://www.w3.org/2000/svg" viewBox="0 0 42.93 38.65"><title>fire_2</title><g id="Layer_2" data-name="Layer 2"><g id="Layer_1-2" data-name="Layer 1"><path d="M41.21,12V34.22a2.12,2.12,0,0,1-2.1,2.11h-28A2.12,2.12,0,0,1,9,34.22V12h1V34.22a1.11,1.11,0,0,0,1.11,1.12h28a1.13,1.13,0,0,0,1.11-1.12V12Z" fill="#4a4a4a"/><polygon points="14.15 16.43 21.18 16.43 21.18 23.24 14.15 23.24 14.15 16.43 14.15 16.43" fill="#00b4ff" fill-rule="evenodd"/><path d="M14.15,15.93h7.53v7.81h-8V15.93Zm6.53,1h-6v5.82h6V16.93Z" fill="#4a4a4a"/><path d="M22.23,26.56H28v9.69H21.74V26.56Zm4.72,1H22.73v7.79H27V27.56Z" fill="#4a4a4a"/><polygon points="21.18 19.84 21.18 20.36 14.15 20.36 14.15 19.32 21.18 19.32 21.18 19.84 21.18 19.84" fill="#4a4a4a"/><polygon points="17.66 23.54 17.14 23.54 17.14 16.51 18.18 16.51 18.18 23.54 17.66 23.54 17.66 23.54" fill="#4a4a4a"/><polygon points="28.86 16.47 35.88 16.47 35.88 23.28 28.86 23.28 28.86 16.47 28.86 16.47" fill="#00b4ff" fill-rule="evenodd"/><path d="M28.86,16h7.52v7.81h-8V16Zm6.53,1h-6v5.82h6V17Z" fill="#4a4a4a"/><polygon points="35.88 19.88 35.88 20.4 28.86 20.4 28.86 19.36 35.88 19.36 35.88 19.88 35.88 19.88" fill="#4a4a4a"/><polygon points="32.36 23.58 31.84 23.58 31.84 16.55 32.88 16.55 32.88 23.58 32.36 23.58 32.36 23.58" fill="#4a4a4a"/><path d="M1.58,38.16v0A2.49,2.49,0,0,1,3.7,35.65v0a5.34,5.34,0,0,1,10.68,0c0,.12,0,.24,0,.36a2.94,2.94,0,0,1,1-.18,3,3,0,0,1,3,2.35Z" fill="#fff" fill-rule="evenodd"/><path d="M1.08,38.16v0h0a3,3,0,0,1,.72-1.94,3,3,0,0,1,1.41-.92,5.83,5.83,0,0,1,11.65.1,4.38,4.38,0,0,1,.52,0A3.56,3.56,0,0,1,18.82,38l.14.61H1.09v-.49Zm1.47-1.35a2.14,2.14,0,0,0-.43.85h15.5a2.51,2.51,0,0,0-2.24-1.35,3.15,3.15,0,0,0-.44,0l-.42.11-.71.26,0-.75c0-.08,0-.13,0-.17v-.16a4.84,4.84,0,1,0-9.68,0h0v.45l-.42.06a2.06,2.06,0,0,0-1.22.67Z" fill="#4a4a4a"/><path d="M7.8,7.94H42.93V12.2H7.38V7.94Zm34.28.85H8.23v2.55H42.08V8.79Z" fill="#4a4a4a"/><polygon points="33.59 8.44 33.09 8.28 35.65 0 36.65 0.31 34.08 8.59 33.59 8.44 33.59 8.44" fill="#4a4a4a"/><polygon points="37.33 2.94 37.17 3.43 32.85 2.1 33.16 1.1 37.48 2.44 37.33 2.94 37.33 2.94" fill="#4a4a4a"/><polygon points="37.46 5.21 37.31 5.7 32.98 4.37 33.29 3.37 37.61 4.71 37.46 5.21 37.46 5.21" fill="#4a4a4a"/><path d="M3.8.68A3.31,3.31,0,1,1,.5,4,3.31,3.31,0,0,1,3.8.68Z" fill="#fc0" fill-rule="evenodd"/><path d="M3.8.19A3.74,3.74,0,0,1,6.48,1.3a3.8,3.8,0,0,1,0,5.37A3.74,3.74,0,0,1,3.8,7.78,3.79,3.79,0,0,1,0,4,3.83,3.83,0,0,1,1.11,1.3,3.79,3.79,0,0,1,3.8.19ZM5.78,2a2.81,2.81,0,0,0-4,0,2.81,2.81,0,0,0,0,4,2.81,2.81,0,0,0,4-4Z" fill="#4a4a4a"/></g></g></svg>