<?xml version="1.0" encoding="utf-8"?>
<!-- Generator: Adobe Illustrator 22.1.0, SVG Export Plug-In . SVG Version: 6.00 Build 0)  -->
<svg version="1.1" id="Layer_1" xmlns="http://www.w3.org/2000/svg" xmlns:xlink="http://www.w3.org/1999/xlink" x="0px" y="0px"
	 viewBox="0 0 38.7 44.4" style="enable-background:new 0 0 38.7 44.4;" xml:space="preserve">
<style type="text/css">
	.st0{fill:#FFFFFF;}
	.st1{fill:#4A4A4A;}
	.st2{fill:#FFCC00;}
	.st3{fill:#00B4FF;}
	.st4{fill:none;stroke:#4A4A4A;stroke-width:0.75;stroke-miterlimit:10;}
	.st5{fill:#00B4FF;stroke:#4A4A4A;stroke-width:0.5;stroke-miterlimit:10;}
	.st6{fill:#FFCC00;stroke:#4A4A4A;stroke-width:0.5;stroke-miterlimit:10;}
</style>
<title>health</title>
<g id="Layer_2_1_">
	<g id="Layer_1-2">
		<path class="st0" d="M10.7,0.5c1.7,0,3.1,0.9,3.1,1.9c0,0.1,0,0.2,0,0.3c3.8,0.3,7,1.2,7,2.5V23c0,4.9-3.9,8.8-8.8,8.8H9.3
			c-4.9,0-8.8-3.9-8.8-8.8V5.2c0-1.5,3.2-2.3,7.2-2.5c0-0.1,0-0.1,0-0.2C7.6,1.3,9,0.5,10.7,0.5z"/>
		<path class="st1" d="M12,32.2H9.3C4.2,32.2,0,28.1,0,23V5.2c0-2.1,4.3-2.8,7.1-3C7.3,0.9,8.8,0,10.7,0s3.4,1,3.6,2.3
			c2.8,0.3,7,1,7,2.9V23C21.2,28.1,17.1,32.2,12,32.2z M10.7,0.9c-1.4,0-2.6,0.7-2.6,1.5c0,0,0,0.1,0,0.1L8.1,3H7.6
			C3,3.3,0.9,4.3,0.9,5.2V23c0,4.6,3.7,8.3,8.3,8.3H12c4.6,0,8.3-3.8,8.3-8.3V5.2c0-0.6-1.8-1.6-6.6-2h-0.5l0.1-0.5
			c0-0.1,0-0.1,0-0.2C13.3,1.6,12.1,0.9,10.7,0.9z"/>
		<polygon class="st1" points="10.6,14.7 10.6,15.2 6.5,15.2 6.5,14.2 10.6,14.2 10.6,14.7 		"/>
		<polygon class="st1" points="10.6,21.6 10.6,22.1 6.5,22.1 6.5,21.2 10.6,21.2 10.6,21.6 		"/>
		<polygon class="st1" points="8.5,18 8.5,18.5 6.4,18.5 6.4,17.5 8.5,17.5 8.5,18 		"/>
		<polygon class="st1" points="8.5,24.6 8.5,25.1 6.4,25.1 6.4,24.1 8.5,24.1 8.5,24.6 		"/>
		<polygon class="st1" points="8.6,11.1 8.6,11.6 6.5,11.6 6.5,10.7 8.6,10.7 8.6,11.1 		"/>
		<path class="st2" d="M9.2,31.9h2.8c0.5,0,0.9,0.4,0.9,0.9l0,0c0,0.5-0.4,0.9-0.9,0.9H9.2c-0.5,0-0.9-0.4-0.9-0.9l0,0
			C8.3,32.3,8.7,31.9,9.2,31.9C9.2,31.9,9.2,31.9,9.2,31.9z"/>
		<path class="st1" d="M12.1,34.1H9.2C8.5,34,7.9,33.4,8,32.6C8,32,8.6,31.5,9.2,31.4h2.8c0.7,0.1,1.3,0.7,1.2,1.5
			C13.2,33.5,12.7,34,12.1,34.1z M9.2,32.3c-0.2,0-0.4,0.2-0.4,0.4c0,0.2,0.2,0.4,0.4,0.4h2.8c0.2,0,0.4-0.2,0.4-0.4
			c0-0.2-0.2-0.4-0.4-0.4H9.2z"/>
		<path class="st0" d="M9.7,35.7v-2.1h1.7v2.1c0,0.5-0.4,0.9-0.9,0.9l0,0C10.1,36.6,9.7,36.2,9.7,35.7z"/>
		<path class="st1" d="M10.6,37.1c-0.7,0-1.3-0.6-1.3-1.3v-2.5h2.7v2.5C11.9,36.5,11.3,37.1,10.6,37.1
			C10.6,37.1,10.6,37.1,10.6,37.1z M10.2,34.1v1.6c0,0.2,0.1,0.4,0.3,0.5c0.2,0,0.4-0.1,0.5-0.3c0,0,0-0.1,0-0.1v-1.6H10.2z"/>
		<path class="st3" d="M0.9,14.9c0,0,3.5,4.9,8.4,5.2c2.4,0.1,7.3-2.6,11-0.6c0.1,2.7,0.3,5-0.9,7.4c-0.8,1.5-2,2.8-3.5,3.6
			c-4.2,2.2-11.2,1.4-13.7-3.2c-0.9-1.5-1.4-3.3-1.3-5.1V14.9z"/>
		<path class="st3" d="M10.6,31.6c-0.8,0-1.6-0.1-2.3-0.2c-2.6-0.4-4.9-1.9-6.2-4.1c-0.9-1.5-1.3-3.3-1.2-5.1v-7.2h0.1
			c0,0.1,3.6,4.9,8.4,5.2c1.1,0,2.1-0.2,3.1-0.5c2.4-0.6,5.4-1.4,7.9-0.1l0,0l0,0c0,0.2,0,0.4,0,0.6c0.1,2.5,0.2,4.6-1,6.8
			c-0.8,1.5-2,2.8-3.5,3.6C14.2,31.2,12.4,31.6,10.6,31.6z M0.9,15v7.1c-0.1,1.8,0.3,3.5,1.2,5.1c1.3,2.2,3.6,3.7,6.2,4.1
			c2.5,0.5,5.2,0.2,7.5-0.9c1.5-0.8,2.7-2,3.5-3.6c1.1-2.2,1.1-4.4,1-6.8c0-0.2,0-0.4,0-0.6c-2.4-1.3-5.4-0.5-7.8,0.1
			c-1,0.3-2.1,0.5-3.1,0.6C4.8,19.9,1.4,15.7,0.9,15z"/>
		<polygon class="st1" points="6.1,31.4 5.6,31.4 5.6,8.6 6.6,8.6 6.6,31.4 6.1,31.4 		"/>
		<path class="st1" d="M23.2,27.3v-5.5c0-3.9,3.1-7,7-7s7,3.1,7,7V28c0,0.1,0,0.2-0.1,0.3c-0.1,0.1-0.2,0.1-0.3,0.1
			c-0.1,0-0.2,0-0.3-0.1c-0.1-0.1-0.1-0.2-0.1-0.3v-6.2c-0.1-3.4-3-6-6.4-5.9c-3.2,0.1-5.7,2.7-5.9,5.9V27l0,0v10.3c0,3.9-3.1,7-7,7
			s-7-3.1-7-7v-0.5H11v0.5c-0.1,3.4,2.5,6.2,5.9,6.4c3.4,0.1,6.2-2.5,6.4-5.9c0-0.2,0-0.3,0-0.5L23.2,27.3L23.2,27.3z"/>
		<path class="st2" d="M36.3,24.6h1.1c0.5,0,0.9,0.4,0.9,0.9l0,0c0,0.5-0.4,0.9-0.9,0.9h-1.1c-0.5,0-0.9-0.4-0.9-0.9l0,0
			C35.4,25,35.8,24.6,36.3,24.6z"/>
		<path class="st1" d="M37.4,26.8h-1.1c-0.7-0.1-1.3-0.7-1.2-1.5c0.1-0.6,0.6-1.2,1.2-1.2h1.1c0.7,0.1,1.3,0.7,1.2,1.5
			C38.5,26.3,38,26.8,37.4,26.8z M36.3,25.1c-0.2,0-0.4,0.1-0.5,0.3c0,0.2,0.1,0.4,0.3,0.5c0,0,0.1,0,0.1,0h1.1
			c0.2,0,0.4-0.2,0.3-0.5c0-0.2-0.2-0.3-0.3-0.3H36.3z"/>
		<polygon class="st1" points="10.6,21.4 10.6,21.8 6.5,21.8 6.5,20.9 10.6,20.9 10.6,21.4 		"/>
		<polygon class="st1" points="8.5,24.6 8.5,25.1 6.4,25.1 6.4,24.1 8.5,24.1 8.5,24.6 		"/>
	</g>
</g>
<g>
	<circle class="st4" cx="3.4" cy="40.9" r="1.8"/>
	<line class="st4" x1="4.9" y1="38.3" x2="4.3" y2="39.3"/>
	<line class="st4" x1="2.6" y1="38" x2="2.9" y2="39.1"/>
	<line class="st4" x1="0.8" y1="39.4" x2="1.9" y2="40"/>
	<line class="st4" x1="0.5" y1="41.6" x2="1.7" y2="41.3"/>
	<line class="st4" x1="2.2" y1="42.9" x2="2.5" y2="42.4"/>
	<line class="st4" x1="4.2" y1="43.7" x2="3.9" y2="42.6"/>
	<line class="st4" x1="5.4" y1="42" x2="4.9" y2="41.8"/>
	<line class="st4" x1="6.3" y1="40.1" x2="5.1" y2="40.4"/>
	<circle class="st5" cx="2.4" cy="40.1" r="0.5"/>
	<circle class="st5" cx="2" cy="43.3" r="0.5"/>
	<circle class="st5" cx="5" cy="38" r="0.5"/>
	<circle class="st5" cx="4.2" cy="40.4" r="0.3"/>
	<circle class="st5" cx="5.7" cy="42.2" r="0.3"/>
	<circle class="st5" cx="4.2" cy="43.9" r="0.3"/>
	<circle class="st5" cx="2.6" cy="37.8" r="0.3"/>
	<circle class="st6" cx="3.4" cy="41.7" r="0.4"/>
	<circle class="st6" cx="0.7" cy="39.3" r="0.5"/>
	<circle class="st6" cx="6.5" cy="40.1" r="0.4"/>
	<circle class="st6" cx="0.5" cy="41.6" r="0.4"/>
</g>
<g>
	<circle class="st4" cx="31.1" cy="36.8" r="2.2"/>
	<line class="st4" x1="30.2" y1="33.2" x2="30.6" y2="34.7"/>
	<line class="st4" x1="28" y1="34.9" x2="29.2" y2="35.7"/>
	<line class="st4" x1="27.5" y1="37.7" x2="29" y2="37.3"/>
	<line class="st4" x1="29.2" y1="40" x2="30" y2="38.7"/>
	<line class="st4" x1="31.8" y1="39.7" x2="31.6" y2="39"/>
	<line class="st4" x1="34.3" y1="38.8" x2="33" y2="38"/>
	<line class="st4" x1="34.7" y1="36" x2="33.3" y2="36.3"/>
	<line class="st4" x1="33.1" y1="33.7" x2="32.3" y2="34.9"/>
	<circle class="st5" cx="29.5" cy="37" r="0.7"/>
	<circle class="st5" cx="32" cy="40.3" r="0.7"/>
	<circle class="st5" cx="30.1" cy="32.9" r="0.7"/>
	<circle class="st5" cx="31.4" cy="35.7" r="0.4"/>
	<circle class="st5" cx="34.9" cy="35.9" r="0.4"/>
	<circle class="st5" cx="34.4" cy="38.9" r="0.4"/>
	<circle class="st5" cx="27.8" cy="34.8" r="0.4"/>
	<circle class="st6" cx="31.9" cy="37.6" r="0.5"/>
	<circle class="st6" cx="27.4" cy="37.8" r="0.7"/>
	<circle class="st6" cx="33.2" cy="33.4" r="0.5"/>
	<circle class="st6" cx="29" cy="40.3" r="0.5"/>
</g>
<g>
	<circle class="st4" cx="33" cy="6.9" r="3.1"/>
	<line class="st4" x1="33" y1="1.7" x2="33" y2="3.8"/>
	<line class="st4" x1="29.3" y1="3.2" x2="30.8" y2="4.7"/>
	<line class="st4" x1="27.8" y1="6.9" x2="29.9" y2="6.9"/>
	<line class="st4" x1="29.3" y1="10.6" x2="30.8" y2="9.1"/>
	<line class="st4" x1="33" y1="11.1" x2="33" y2="10"/>
	<line class="st4" x1="36.7" y1="10.6" x2="35.2" y2="9.1"/>
	<line class="st4" x1="37.1" y1="6.9" x2="36.2" y2="6.9"/>
	<line class="st4" x1="36.7" y1="3.2" x2="35.2" y2="4.7"/>
	<circle class="st5" cx="30.8" cy="6.6" r="0.9"/>
	<circle class="st5" cx="33" cy="11.9" r="0.9"/>
	<circle class="st5" cx="33" cy="1.2" r="0.9"/>
	<circle class="st5" cx="33.8" cy="5.4" r="0.6"/>
	<circle class="st5" cx="37.6" cy="7" r="0.6"/>
	<circle class="st5" cx="36.9" cy="10.8" r="0.6"/>
	<circle class="st5" cx="29.1" cy="3" r="0.6"/>
	<circle class="st6" cx="33.8" cy="8.2" r="0.7"/>
	<circle class="st6" cx="27.5" cy="7" r="1"/>
	<circle class="st6" cx="37.1" cy="3" r="0.7"/>
	<circle class="st6" cx="29.2" cy="10.6" r="0.7"/>
</g>
</svg>
