<svg xmlns="http://www.w3.org/2000/svg" viewBox="0 0 43.6 43.6"><title>icon-support</title><g id="Layer_2" data-name="Layer 2"><g id="Layer_1-2" data-name="Layer 1"><g id="Layer_2-2" data-name="Layer 2"><g id="Layer_1-2-2" data-name="Layer 1-2"><path d="M21.8,0A21.8,21.8,0,1,1,0,21.8,21.8,21.8,0,0,1,21.8,0Z" fill="#fff"/><path d="M21.35,34.5h1a.9.9,0,0,1,.9.9h0a.9.9,0,0,1-.9.9h-1a.9.9,0,0,1-.9-.9h0a.9.9,0,0,1,.9-.9Z" fill="#fafafc"/><path d="M22,4.8A13,13,0,0,1,34.9,17.7v3.65H33.7v-3.6a11.6,11.6,0,0,0-23.2,0v3.6H9.1v-3.6a12.79,12.79,0,0,1,3.8-9.1A12.61,12.61,0,0,1,22,4.85Z" fill="#58595b" stroke="#58595b" stroke-miterlimit="2.61" stroke-width="0.3"/><path d="M32.4,19.6h0a1.32,1.32,0,0,1,1.3,1.3V31.35a1.32,1.32,0,0,1-1.3,1.3h0a1.32,1.32,0,0,1-1.3-1.3V20.9A1.32,1.32,0,0,1,32.4,19.6Zm1.3,1.3h0a3.54,3.54,0,0,1,3.5,3.5V28a3.54,3.54,0,0,1-3.5,3.5ZM11.8,19.6h0a1.32,1.32,0,0,0-1.3,1.3V31.35a1.32,1.32,0,0,0,1.3,1.3h0a1.32,1.32,0,0,0,1.3-1.3V20.9a1.26,1.26,0,0,0-1.22-1.3Zm-1.3,1.2h0A3.54,3.54,0,0,0,7,24.35V28a3.54,3.54,0,0,0,3.5,3.5Z" fill="#fff" stroke="#58595b" stroke-miterlimit="2.61" stroke-width="1.2"/><path d="M32.4,20.14h0c.37,0,.69.51.69,1.12v9.68c0,.61-.32,1.12-.69,1.12h0c-.37,0-.69-.51-.69-1.12V21.26C31.71,20.65,32,20.14,32.4,20.14Z" fill="#00b4ff"/><path d="M34.1,21.7h0a2.66,2.66,0,0,1,2.6,2.6v4.1A2.66,2.66,0,0,1,34.1,31h0Z" fill="#00b4ff"/><path d="M21.1,34.1h1.6a1.22,1.22,0,0,1,1.2,1.2h0a1.22,1.22,0,0,1-1.2,1.2H21.1a1.22,1.22,0,0,1-1.2-1.2h0A1.22,1.22,0,0,1,21.1,34.1Z" fill="none" stroke="#58595b" stroke-miterlimit="2.61" stroke-width="1.3"/><path d="M32.7,32.7a6.62,6.62,0,0,1-1,1.3,6.88,6.88,0,0,1-4.9,2.1H24.35V34.9h2.5A5.87,5.87,0,0,0,31,33.2a1.76,1.76,0,0,0,.4-.5Z" fill="#58595b" stroke="#58595b" stroke-miterlimit="2.61" stroke-width="0.22"/></g></g></g></g></svg>