<svg xmlns="http://www.w3.org/2000/svg" viewBox="0 0 43.6 43.6"><title>icon-ersal</title><g id="Layer_2" data-name="Layer 2"><g id="Layer_1-2" data-name="Layer 1"><g id="Layer_1-2-2" data-name="Layer 1-2"><path d="M21.8,0A21.8,21.8,0,1,1,0,21.8,21.8,21.8,0,0,1,21.8,0Z" fill="#fff"/><path d="M30,22.2h5.9c-.2,6.3,3.8,6.6,6.4,6.4.3,0-.6,2-.6,2H31.9" fill="none" stroke="#58595b" stroke-miterlimit="2.61" stroke-width="1.3"/><polygon points="12.3 10.5 24.4 10.5 24.4 18.6 12.3 18.6 12.3 10.5" fill="#00b4ff"/><path d="M30.6,30.5s.1-3.5.1-4a5.19,5.19,0,0,0-3.9-2.8c-6.8,0-11,.2-12,7Z" fill="#fff"/><path d="M20.1,32.5H16.35c-.1,3,1.3,5.2,4.9,6.2a22.74,22.74,0,0,0,2.6.3c.2,0,2.2-.7,2.5-.8s1.6-.9,1.6-.9,1.1-1.2,1.2-1.4.4-1.4.4-1.4l.2-1.9v-.7l-4.1-.6.3,1.6-.9,1.5-2.6,1s-1.7-.8-1.7-1.2a4.17,4.17,0,0,0-.3-1.1l-.3-.6Z" fill="#00b4ff"/><path d="M17.35,19.35h10.9a2,2,0,0,1,2,2h0a2,2,0,0,1-2,2H17.35a2,2,0,0,1-2-2h0A2,2,0,0,1,17.35,19.35Zm-6.9-10.1h14.3v10H10.4v-10Zm-3.2,5.2h4.9v-.2H7.2v.2Zm1.5-2.9h3.9v-.2h-4v.2Zm.2,5.6h3.6V17H8.9v.2Zm-4.5-2.7h.3v-.2h-.3ZM25.8,31.35a3.12,3.12,0,0,1,.2,1,2.9,2.9,0,1,1-5.8,0,3.78,3.78,0,0,1,.2-1Z" fill="none" stroke="#58595b" stroke-miterlimit="2.61" stroke-width="1.3"/><path d="M22.2,22.8h4.7a4.82,4.82,0,0,1,3.5,1.4,4.61,4.61,0,0,1,1.5,3.3v4.3H13.4v-.6A8.07,8.07,0,0,1,16,25.3,8.66,8.66,0,0,1,22.2,22.8ZM26.9,24H22.2a7.63,7.63,0,0,0-5.3,2.1,7.42,7.42,0,0,0-2.2,4.4H30.5V27.4A3,3,0,0,0,29.4,25,3.54,3.54,0,0,0,26.9,24Z" fill="#58595b" stroke="#58595b" stroke-miterlimit="2.61" stroke-width="0.3"/><path d="M31.1,31.1c.1.2,0,.5,0,.7a8.4,8.4,0,0,1-2.3,5.7,7.94,7.94,0,0,1-5.7,2.3,8.4,8.4,0,0,1-5.7-2.3,7.94,7.94,0,0,1-2.3-5.7,4.83,4.83,0,0,1,.1-1.2c0-.2.1.3.1.1h1.3c-.1.2-.1-.2-.1,0a4.07,4.07,0,0,0-.1,1.1,7,7,0,0,0,2,4.8,6.77,6.77,0,0,0,4.8,2,7,7,0,0,0,4.8-2,6.77,6.77,0,0,0,2-4.8v-.7C29.8,30.9,31,30.9,31.1,31.1Z" fill="#58595b" stroke="#58595b" stroke-miterlimit="2.61" stroke-width="0.3"/></g></g></g></svg>