<svg xmlns="http://www.w3.org/2000/svg" viewBox="0 0 43.6 43.6"><title>icon-speed</title><g id="Layer_2" data-name="Layer 2"><g id="Layer_1-2" data-name="Layer 1"><path d="M21.8,0A21.8,21.8,0,1,1,0,21.8,21.8,21.8,0,0,1,21.8,0Z" fill="#fff"/><g id="Layer_1-2-2" data-name="Layer 1-2"><path d="M21.31,11.6a12.7,12.7,0,1,1-.17,0Z" fill="#fff" stroke="#58595b" stroke-miterlimit="2.61" stroke-width="1.3"/><path d="M20.4,14.5A10.2,10.2,0,1,1,10.25,24.75V24.7a10.24,10.24,0,0,1,10.2-10.2Z" fill="#00b4ff" stroke="#00b4ff" stroke-miterlimit="2.61" stroke-width="1.3"/><path d="M21.33,15a9.34,9.34,0,1,1-.13,0Z" fill="#fff" stroke="#58595b" stroke-miterlimit="2.61" stroke-width="1.3"/><path d="M21.5,24.1a.6.6,0,1,1-.6.6A.65.65,0,0,1,21.5,24.1ZM20,5.35h3.3a1.88,1.88,0,0,1,1.8,1.9h0a1.79,1.79,0,0,1-1.78,1.8H20a1.88,1.88,0,0,1-1.9-1.8h0A2,2,0,0,1,20,5.35Zm1.2,4.42h.6v1h-.55v-1Z" fill="none" stroke="#58595b" stroke-miterlimit="2.61" stroke-width="1.3"/><path d="M20.3,5.5h3.1a.67.67,0,0,1,.7.66v0h0a.67.67,0,0,1-.66.7H20.3a.67.67,0,0,1-.7-.66v0h0A.85.85,0,0,1,20.3,5.5Z" fill="#00b4ff" stroke="#00b4ff" stroke-miterlimit="2.61" stroke-width="1.3"/><path d="M22.6,24.9H27v-.2H22.6Zm-.9-1.5V20.9h-.2v2.5Z" fill="none" stroke="#58595b" stroke-miterlimit="2.61"/></g></g></g></svg>