<svg xmlns="http://www.w3.org/2000/svg" viewBox="0 0 43.6 43.6"><title>icon-simple</title><g id="Layer_2" data-name="Layer 2"><g id="Layer_1-2" data-name="Layer 1"><g id="Layer_2-2" data-name="Layer 2"><g id="Layer_1-2-2" data-name="Layer 1-2"><path d="M21.8,0A21.8,21.8,0,1,1,0,21.8,21.8,21.8,0,0,1,21.8,0Z" fill="#fff"/><path d="M22.6,19.7V34a3.4,3.4,0,1,1-6.8,0V32.5h1.3V34a2.1,2.1,0,0,0,4.2,0V19.7Z" fill="#58595b" stroke="#58595b" stroke-miterlimit="2.61" stroke-width="0.3"/><path d="M22,7c7.9,0,14.3,6.8,14.3,15.2V23a4.76,4.76,0,0,0-9.3.1h-.2a4.81,4.81,0,0,0-4.6-3.7,4.72,4.72,0,0,0-4.6,3.7h-.25a4.79,4.79,0,0,0-9.3-.1v-.8c-.3-8.4,6.1-15.2,14-15.2Z" fill="#fff" stroke="#58595b" stroke-miterlimit="2.61" stroke-width="1.3"/><path d="M22.5,7.6c3.8,3.4,4.7,12.1,4.3,13.8-.1.3.3.2.4-.2.6-2,4.9-3.6,7.6-1.2C35.2,20.4,33.1,9.7,22.5,7.6Z" fill="#00b4ff"/></g></g></g></g></svg>