<svg xmlns="http://www.w3.org/2000/svg" viewBox="0 0 25.39 43.09"><title>life</title><g id="Layer_2" data-name="Layer 2"><g id="Layer_1-2" data-name="Layer 1"><path d="M18.18,2.94a3.55,3.55,0,1,1-3.54,3.55,3.55,3.55,0,0,1,3.54-3.55Z" fill="#00b4ff" fill-rule="evenodd"/><path d="M18.18,2.91a3.58,3.58,0,1,1-2.53,1,3.56,3.56,0,0,1,2.53-1ZM20.66,4a3.51,3.51,0,1,0,1,2.49,3.5,3.5,0,0,0-1-2.49Z" fill="#35abe2"/><path d="M7.69,0A4.34,4.34,0,1,1,4.63,1.27,4.31,4.31,0,0,1,7.69,0Zm2.45,1.88a3.42,3.42,0,0,0-2.45-1,3.47,3.47,0,0,0,0,6.93,3.48,3.48,0,0,0,3.47-3.47,3.45,3.45,0,0,0-1-2.45Z" fill="#4a4a4a"/><path d="M18.18,2.16a4.34,4.34,0,0,1,4.33,4.33,4.33,4.33,0,1,1-4.33-4.33ZM20.63,4a3.45,3.45,0,1,0,1,2.45,3.45,3.45,0,0,0-1-2.45Z" fill="#4a4a4a"/><path d="M12.75,14.38a4.33,4.33,0,0,1,0,8.66,4.33,4.33,0,0,1,0-8.66Zm2.45,1.88a3.43,3.43,0,0,0-2.45-1,3.47,3.47,0,1,0,0,6.93,3.46,3.46,0,0,0,2.45-5.91Z" fill="#4a4a4a"/><path d="M17.27,27.5V33H19V29.31a6.18,6.18,0,0,0-12.36,0V33H8.29V27.5h.89V40.31a1,1,0,0,0,.3.71,1,1,0,0,0,.7.29h5.2a1,1,0,0,0,1-1V27.5Zm0,6.35v6.46a1.88,1.88,0,0,1-1.89,1.89h-5.2a1.87,1.87,0,0,1-1.33-.55,1.92,1.92,0,0,1-.56-1.34V33.85H6.17a.43.43,0,0,1-.43-.43V29.31a7,7,0,0,1,14.09,0v4.11a.44.44,0,0,1-.44.43Z" fill="#4a4a4a"/><polygon points="12.76 42.04 12.29 42.04 12.29 34.33 13.22 34.33 13.22 42.04 12.76 42.04 12.76 42.04" fill="#4a4a4a"/><path d="M9.92,41.52a2.09,2.09,0,0,1-2,1.57H4.75A2.08,2.08,0,0,1,2.67,41V27.67a5.75,5.75,0,0,1-1.9-1.93A5.58,5.58,0,0,1,0,22.91V13.48A5.6,5.6,0,0,1,5.59,7.89H10a5.49,5.49,0,0,1,2.59.64,5.62,5.62,0,0,1,1.84,1.55l.35-.05a4.73,4.73,0,0,1,.65,0H19.8a5.6,5.6,0,0,1,5.59,5.59V26.25a5.6,5.6,0,0,1-.92,3.07,5.72,5.72,0,0,1-2.2,1.94v9.91a1.91,1.91,0,0,1-.56,1.35,1.89,1.89,0,0,1-1.35.56H17.54a1.92,1.92,0,0,1-1.87-1.56h.89a1.14,1.14,0,0,0,.25.39,1,1,0,0,0,.73.3h2.82a1,1,0,0,0,.74-.3,1.08,1.08,0,0,0,.3-.74V30.71l.26-.11a4.78,4.78,0,0,0,2.09-1.76,4.67,4.67,0,0,0,.77-2.59V15.58a4.75,4.75,0,0,0-4.72-4.73H15.41a4.91,4.91,0,0,0-.55,0,4.51,4.51,0,0,0-.53.09l-.29.07-.17-.25A4.72,4.72,0,0,0,10,8.75H5.59A4.73,4.73,0,0,0,.87,13.48v9.43a4.63,4.63,0,0,0,.65,2.39A4.75,4.75,0,0,0,3.31,27l.22.13V41a1.23,1.23,0,0,0,.36.86,1.21,1.21,0,0,0,.86.36H7.9A1.21,1.21,0,0,0,9,41.52Z" fill="#4a4a4a"/></g></g></svg>