<svg xmlns="http://www.w3.org/2000/svg" viewBox="0 0 40.81 40.78"><title>medical</title><g id="Layer_2" data-name="Layer 2"><g id="Layer_1-2" data-name="Layer 1"><path d="M4.22,1.3h2v.93h-2A3.29,3.29,0,0,0,.93,5.52v9.21a10.05,10.05,0,0,0,20.1,0V5.52a3.29,3.29,0,0,0-3.3-3.29H16.55V1.3h1.18A4.23,4.23,0,0,1,22,5.52v9.21A11,11,0,0,1,0,14.73V5.52A4.23,4.23,0,0,1,4.22,1.3Z" fill="#4a4a4a"/><polygon points="21.01 18.09 21.01 18.57 1.19 18.57 1.19 17.6 21.01 17.6 21.01 18.09 21.01 18.09" fill="#4a4a4a"/><path d="M7.2.5A1.26,1.26,0,1,1,7.2,3,1.26,1.26,0,1,1,7.2.5Z" fill="#00b4ff" fill-rule="evenodd"/><path d="M7.2,3.49A1.73,1.73,0,1,1,8.92,1.76,1.74,1.74,0,0,1,7.2,3.49ZM7.2,1a.79.79,0,0,0-.8.79.8.8,0,0,0,.8.8A.79.79,0,0,0,8,1.76.79.79,0,0,0,7.2,1Z" fill="#00b4ff"/><path d="M15,.46A1.26,1.26,0,1,1,13.7,1.72,1.26,1.26,0,0,1,15,.46Z" fill="#00b4ff" fill-rule="evenodd"/><path d="M15,3.45a1.73,1.73,0,1,1,1.72-1.73A1.72,1.72,0,0,1,15,3.45ZM15,.93a.8.8,0,1,0,.8.79A.8.8,0,0,0,15,.93Z" fill="#00b4ff"/><path d="M9.85,27.56V25.84H8.39A.87.87,0,0,1,7.52,25h0a.87.87,0,0,1,.87-.87H13.6a.87.87,0,0,1,.87.87h0a.87.87,0,0,1-.87.87H12.31v1.72a1.24,1.24,0,0,1-1.23,1.23h0a1.24,1.24,0,0,1-1.23-1.23Z" fill="#00b4ff" fill-rule="evenodd"/><path d="M11.08,29.25a1.69,1.69,0,0,1-1.69-1.69V26.3h-1a1.34,1.34,0,1,1,0-2.67H13.6a1.34,1.34,0,1,1,0,2.67h-.83v1.26A1.69,1.69,0,0,1,11.08,29.25ZM8.39,24.56a.41.41,0,1,0,0,.81h1.93v2.19a.76.76,0,0,0,1.52,0V25.37H13.6a.41.41,0,1,0,0-.81Z" fill="#4a4a4a"/><path d="M23.67,21.3V13.81a7,7,0,0,1,14.07,0v8.24a.45.45,0,0,1-.14.33.46.46,0,0,1-.32.13.47.47,0,0,1-.33-.13.45.45,0,0,1-.14-.33V13.81a6.11,6.11,0,0,0-12.21,0V21h0V33.74a7,7,0,0,1-14.07,0V29h.93v4.71a6.11,6.11,0,0,0,12.21,0V21.3Z" fill="#4a4a4a"/><path d="M37.29,28.87a3.52,3.52,0,1,1,3.52-3.51A3.51,3.51,0,0,1,37.29,28.87Zm0-6.1a2.59,2.59,0,1,0,2.59,2.59A2.59,2.59,0,0,0,37.29,22.77Z" fill="#4a4a4a"/><path d="M37.29,23.89a1.47,1.47,0,1,1-1.47,1.47,1.47,1.47,0,0,1,1.47-1.47Z" fill="#fc0" fill-rule="evenodd"/><path d="M37.29,27.29a1.94,1.94,0,1,1,1.94-1.93A1.93,1.93,0,0,1,37.29,27.29Zm0-2.94a1,1,0,1,0,1,1A1,1,0,0,0,37.29,24.35Z" fill="#4a4a4a"/></g></g></svg>