<svg xmlns="http://www.w3.org/2000/svg" viewBox="0 0 38.81 25.64"><title>motorcycle_1</title><g id="Layer_2" data-name="Layer 2"><g id="Layer_1-2" data-name="Layer 1"><path d="M6.27,25.64A6.5,6.5,0,0,1,0,19a6.5,6.5,0,0,1,6.27-6.7A6.51,6.51,0,0,1,12.54,19,6.5,6.5,0,0,1,6.27,25.64Zm0-12.53A5.67,5.67,0,0,0,.81,19a5.66,5.66,0,0,0,5.46,5.83A5.66,5.66,0,0,0,11.73,19,5.67,5.67,0,0,0,6.27,13.11Z" fill="#4a4a4a"/><path d="M6.27,15.93a3,3,0,0,1,0,6,3,3,0,0,1,0-6Z" fill="#fc0" fill-rule="evenodd"/><path d="M6.27,22.4A3.35,3.35,0,0,1,3,19,3.35,3.35,0,0,1,6.27,15.5,3.35,3.35,0,0,1,9.5,19,3.35,3.35,0,0,1,6.27,22.4Zm0-6a2.6,2.6,0,0,0,0,5.18,2.6,2.6,0,0,0,0-5.18Z" fill="#4a4a4a"/><path d="M32.55,12.52a6.07,6.07,0,0,1,5.86,6.27,6.07,6.07,0,0,1-5.86,6.26,6.07,6.07,0,0,1-5.87-6.26,6.08,6.08,0,0,1,5.87-6.27Z" fill="#00b4ff" fill-rule="evenodd"/><path d="M32.55,25.48a6.5,6.5,0,0,1-6.27-6.69,6.5,6.5,0,0,1,6.27-6.7,6.5,6.5,0,0,1,6.26,6.7A6.49,6.49,0,0,1,32.55,25.48Zm0-12.53a5.67,5.67,0,0,0-5.47,5.84,5.67,5.67,0,0,0,5.47,5.83A5.66,5.66,0,0,0,38,18.79,5.67,5.67,0,0,0,32.55,13Z" fill="#4a4a4a"/><path d="M32.55,15.77a3,3,0,1,1-2.83,3,2.93,2.93,0,0,1,2.83-3Z" fill="#fff" fill-rule="evenodd"/><path d="M32.55,22.24a3.35,3.35,0,0,1-3.24-3.45,3.24,3.24,0,1,1,6.47,0A3.35,3.35,0,0,1,32.55,22.24Zm0-6A2.6,2.6,0,1,0,35,18.79,2.52,2.52,0,0,0,32.55,16.2Z" fill="#4a4a4a"/><path d="M30.82,10.31H4.31A2.2,2.2,0,0,1,2.19,8,2.2,2.2,0,0,1,4.31,5.77H30.82A2.21,2.21,0,0,1,33,8,2.2,2.2,0,0,1,30.82,10.31ZM4.31,6.63A1.37,1.37,0,0,0,3,8,1.37,1.37,0,0,0,4.31,9.45H30.82A1.37,1.37,0,0,0,32.14,8a1.37,1.37,0,0,0-1.32-1.41Z" fill="#4a4a4a"/><path d="M14.66,6.2l6.79-2c3.12-.91,7.13-.14,6,4.72-.11.5-.39.92-.87.92h-12V6.2Z" fill="#fff" fill-rule="evenodd"/><path d="M26.62,10.31H14.26V5.87l7.08-2.05c1.85-.53,4.33-.58,5.74.88.65.68,1.33,2,.8,4.36C27.7,9.85,27.23,10.31,26.62,10.31ZM15.07,9.45H26.62c.31,0,.43-.41.47-.59.36-1.59.17-2.78-.58-3.55-1.16-1.21-3.4-1.11-5-.66L15.07,6.53Z" fill="#4a4a4a"/><path d="M15.44,20.54,14,17.37l-5.35.68L7.63,16l4-4-.78-1.77.73-.37L16,19.68l8-.05,2.25-8.27,2.87,0L24.86.86h-4.3V0h4.83L31.8,15.84l-.74.34-1.62-4-2.6,0-2.26,8.27ZM8.64,16.2l.49.93,4.55-.58L12,12.83Z" fill="#4a4a4a"/><polygon points="17.24 12.54 22.64 12.54 22.64 15.82 17.24 15.82 17.24 12.54 17.24 12.54" fill="#00b4ff" fill-rule="evenodd"/><path d="M23.05,16.25H16.84V12.11h6.21Zm-5.41-.86h4.6V13h-4.6Z" fill="#00b4ff"/><polygon points="17.41 19.81 16.99 19.81 16.99 17.25 17.83 17.25 17.83 19.81 17.41 19.81 17.41 19.81" fill="#4a4a4a"/><polygon points="19.12 19.83 18.7 19.83 18.7 17.26 19.54 17.26 19.54 19.83 19.12 19.83 19.12 19.83" fill="#4a4a4a"/><polygon points="20.79 19.83 20.37 19.83 20.37 17.27 21.21 17.27 21.21 19.83 20.79 19.83 20.79 19.83" fill="#4a4a4a"/><polygon points="22.54 19.83 22.12 19.83 22.12 17.26 22.96 17.26 22.96 19.83 22.54 19.83 22.54 19.83" fill="#4a4a4a"/></g></g></svg>