<svg xmlns="http://www.w3.org/2000/svg" viewBox="0 0 55.55 40.71"><title>thirdparty</title><g id="Layer_2" data-name="Layer 2"><g id="Layer_1-2" data-name="Layer 1"><path d="M8.53,33.87H8.35A3,3,0,0,1,5.4,30.92v-3h6.08v3a3,3,0,0,1-3,2.95Zm-.18-1h.18a1.95,1.95,0,0,0,1.94-1.94v-2H6.4v2a2,2,0,0,0,1.95,1.94Z" fill="#4a4a4a"/><path d="M10.45,0H30.78a2.71,2.71,0,0,1,2,.84A5,5,0,0,1,34,3.08l1.18,4.25h-1L33,3.35a4.12,4.12,0,0,0-.94-1.8A1.78,1.78,0,0,0,30.78,1H10.45a1.85,1.85,0,0,0-1.35.56,3.54,3.54,0,0,0-.87,1.75L6.37,11.85h0a.51.51,0,0,1-.14.26L1.28,16.9v7.84a3.21,3.21,0,0,0,3.2,3.19H14.7l.05,1H4.48a4.22,4.22,0,0,1-4.2-4.2v-8a.53.53,0,0,1,.18-.39l5-4.81L7.25,3.11A4.55,4.55,0,0,1,8.39.86,2.84,2.84,0,0,1,10.45,0Z" fill="#4a4a4a"/><path d="M12.37,2.89H29.29a1.89,1.89,0,0,1,1.37.57,3,3,0,0,1,.75,1.45L32,7.33H31l-.52-2.19a2,2,0,0,0-.48-1,.91.91,0,0,0-.66-.28H12.37a1,1,0,0,0-.67.28,2,2,0,0,0-.47,1L9.91,11.25l12,.05-.49,1L8.66,12.25l1.59-7.33A2.91,2.91,0,0,1,11,3.47a1.9,1.9,0,0,1,1.38-.58Z" fill="#4a4a4a"/><path d="M12.37,2.88H29.29A2,2,0,0,1,30,3a2,2,0,0,1,.63.43,2.75,2.75,0,0,1,.46.64,3.64,3.64,0,0,1,.3.82L32,7.33h0L31.4,4.91a3.74,3.74,0,0,0-.3-.81,2.58,2.58,0,0,0-.45-.63A2,2,0,0,0,30,3.05a2,2,0,0,0-.74-.14H12.37a2,2,0,0,0-.74.14,2,2,0,0,0-.63.43,2.4,2.4,0,0,0-.45.63,3.72,3.72,0,0,0-.29.81L8.68,12.23l12.7.06v0L8.65,12.26l1.59-7.34a3.18,3.18,0,0,1,.28-.82A2.75,2.75,0,0,1,11,3.46,2,2,0,0,1,11.62,3a2,2,0,0,1,.75-.14Zm16.92,1H12.37A1,1,0,0,0,12,4a1,1,0,0,0-.31.21,1.68,1.68,0,0,0-.28.4,2.37,2.37,0,0,0-.18.55L9.93,11.23l11.93.06v0l-12-.05,1.33-6.13a2.38,2.38,0,0,1,.19-.55,1.56,1.56,0,0,1,.28-.41A1,1,0,0,1,12,4a.86.86,0,0,1,.36-.08H29.29a.86.86,0,0,1,.36.08.81.81,0,0,1,.31.21,1.58,1.58,0,0,1,.29.41,3.08,3.08,0,0,1,.2.56L31,7.33h0l-.52-2.18a2.48,2.48,0,0,0-.2-.56,1.44,1.44,0,0,0-.28-.4,1,1,0,0,0-.3-.21,1,1,0,0,0-.35-.07Z" fill="#4a4a4a"/><path d="M13.68,17.38h1l.95,1h-2a1.13,1.13,0,0,0-1.13,1.13v4.4A1.13,1.13,0,0,0,13.68,25h.86l.05,1h-.91a2.12,2.12,0,0,1-1.51-.63,2.1,2.1,0,0,1-.63-1.5v-4.4a2.15,2.15,0,0,1,2.14-2.14Z" fill="#4a4a4a"/><path d="M5.16,17.14H6.92a2.45,2.45,0,0,1,2.45,2.45v.68h-5V18a.82.82,0,0,1,.81-.82Z" fill="#00b4ff" fill-rule="evenodd"/><path d="M5.16,16.64H6.92a3,3,0,0,1,2.95,2.95v1.19h-6V18a1.31,1.31,0,0,1,1.31-1.32Zm1.76,1H5.16a.31.31,0,0,0-.22.09.34.34,0,0,0-.09.22v1.81h4v-.18a1.95,1.95,0,0,0-1.94-1.94Z" fill="#00b4ff"/><path d="M4.29,22.89H8.68a1.23,1.23,0,0,1,1.23,1.23v1.31H4.29V22.89Z" fill="#00b4ff" fill-rule="evenodd"/><path d="M4.29,22.39H8.68a1.74,1.74,0,0,1,1.73,1.73v1.81H3.79V22.39Zm4.39,1H4.8v1.53H9.4v-.81a.72.72,0,0,0-.72-.72Z" fill="#00b4ff"/><path d="M4.7,9H2.21A1.2,1.2,0,0,0,1,10.21a.91.91,0,0,0,.27.65.88.88,0,0,0,.65.27H5V9.32a.3.3,0,0,0-.1-.22A.28.28,0,0,0,4.7,9ZM2.21,8H4.7a1.32,1.32,0,0,1,.94.39A1.31,1.31,0,0,1,6,9.32v2.82H1.93A1.95,1.95,0,0,1,0,10.21,2.22,2.22,0,0,1,2.21,8Z" fill="#4a4a4a"/><path d="M22.4,40.71h-.18a3,3,0,0,1-2.95-3v-3h6.08v3a3,3,0,0,1-3,3Zm-.18-1h.18a1.95,1.95,0,0,0,1.94-1.94v-2H20.28v2a1.95,1.95,0,0,0,1.94,1.94Z" fill="#4a4a4a"/><path d="M47.79,40.69h-.18a3,3,0,0,1-3-2.95v-3h6.08v3a3,3,0,0,1-3,2.95Zm-.18-1h.18a1.94,1.94,0,0,0,1.37-.57,1.9,1.9,0,0,0,.57-1.37v-2H45.67v2a1.95,1.95,0,0,0,1.94,1.94Z" fill="#4a4a4a"/><path d="M24.32,6.84H44.65a2.75,2.75,0,0,1,2,.84,5.06,5.06,0,0,1,1.2,2.24l2.34,8.39,5.17,4.86a.52.52,0,0,1,.16.36h0v8a4.22,4.22,0,0,1-4.21,4.2h-33a4.2,4.2,0,0,1-4.2-4.2v-8a.49.49,0,0,1,.18-.38l5-4.82L21.12,10A4.64,4.64,0,0,1,22.26,7.7a2.84,2.84,0,0,1,2.06-.86Zm20.33,1H24.32A1.82,1.82,0,0,0,23,8.42a3.48,3.48,0,0,0-.88,1.74l-1.86,8.53h0a.52.52,0,0,1-.14.25l-5,4.81v7.83a3.21,3.21,0,0,0,3.2,3.2h33a3.21,3.21,0,0,0,3.2-3.2V23.75L49.4,19a.59.59,0,0,1-.14-.23l-2.38-8.53a4.18,4.18,0,0,0-.94-1.8,1.76,1.76,0,0,0-1.29-.54Z" fill="#4a4a4a"/><path d="M26.25,10.24H43.16c.9,0,1.43.76,1.63,1.63l1.62,6.83-23.25-.11,1.45-6.72c.19-.88.74-1.63,1.64-1.63Z" fill="#00b4ff" fill-rule="evenodd"/><path d="M26.25,9.74H43.16a1.84,1.84,0,0,1,1.37.57,2.94,2.94,0,0,1,.75,1.44l1.77,7.45-24.52-.11,1.59-7.33a3,3,0,0,1,.74-1.45,1.94,1.94,0,0,1,1.39-.57Zm16.91,1H26.25a.92.92,0,0,0-.67.28,1.89,1.89,0,0,0-.47,1l-1.33,6.11,22,.1L44.3,12a2,2,0,0,0-.48-1,.91.91,0,0,0-.66-.28Z" fill="#4a4a4a"/><path d="M27.55,24.23H42.31a2.12,2.12,0,0,1,2.13,2.13v4.4a2.12,2.12,0,0,1-2.13,2.13H27.55A2.16,2.16,0,0,1,26,32.27a2.12,2.12,0,0,1-.63-1.51v-4.4A2.12,2.12,0,0,1,26,24.85a2.16,2.16,0,0,1,1.51-.62Zm14.76,1H27.55a1.13,1.13,0,0,0-1.13,1.13v4.4a1.13,1.13,0,0,0,1.13,1.13H42.31a1.14,1.14,0,0,0,1.13-1.13v-4.4a1.14,1.14,0,0,0-1.13-1.13Z" fill="#4a4a4a"/><path d="M19,24h1.75a2.45,2.45,0,0,1,2.45,2.44v.69h-5V24.8A.82.82,0,0,1,19,24Z" fill="#fc0" fill-rule="evenodd"/><path d="M19,23.48h1.75a3,3,0,0,1,2.09.87,2.94,2.94,0,0,1,.86,2.08v1.19h-6V24.8a1.35,1.35,0,0,1,.38-.93,1.32,1.32,0,0,1,.94-.39Zm1.75,1H19a.32.32,0,0,0-.22.09.32.32,0,0,0-.1.22v1.81h4v-.18a2,2,0,0,0-1.95-1.94Z" fill="#4a4a4a"/><path d="M18.17,29.74h4.38A1.23,1.23,0,0,1,23.78,31v1.31H18.17V29.74Z" fill="#fc0" fill-rule="evenodd"/><path d="M18.17,29.23h4.38a1.72,1.72,0,0,1,1.22.51A1.7,1.7,0,0,1,24.28,31v1.82H17.66V29.23Zm4.38,1H18.67v1.53h4.6V31a.72.72,0,0,0-.72-.72Z" fill="#4a4a4a"/><path d="M50.78,24.09H49a2.46,2.46,0,0,0-2.45,2.45v.68h5V24.91a.82.82,0,0,0-.82-.82Z" fill="#fc0" fill-rule="evenodd"/><path d="M50.78,24.6H49a1.94,1.94,0,0,0-1.37.57,1.9,1.9,0,0,0-.57,1.37v.18h4V24.91a.32.32,0,0,0-.1-.22.28.28,0,0,0-.22-.09Zm-1.75-1h1.75a1.32,1.32,0,0,1,.94.39,1.31,1.31,0,0,1,.38.93v2.82h-6V26.54a3,3,0,0,1,3-2.95Z" fill="#4a4a4a"/><path d="M51.66,29.85H47.27A1.23,1.23,0,0,0,46,31.07v1.31h5.62V29.85Z" fill="#fc0" fill-rule="evenodd"/><path d="M51.15,30.35H47.27a.72.72,0,0,0-.72.72v.81h4.6V30.35Zm-3.88-1h4.89v3.54H45.54V31.07a1.68,1.68,0,0,1,.51-1.22,1.72,1.72,0,0,1,1.22-.51Z" fill="#4a4a4a"/><path d="M50.84,14.93h2.5a2.19,2.19,0,0,1,1.56.64,2.22,2.22,0,0,1,.65,1.57,1.91,1.91,0,0,1-1.93,1.92H49.53V16.24a1.3,1.3,0,0,1,1.31-1.31Zm2.5,1h-2.5a.31.31,0,0,0-.31.31v1.82h3.09a.89.89,0,0,0,.65-.28.88.88,0,0,0,.27-.64,1.18,1.18,0,0,0-.35-.85,1.2,1.2,0,0,0-.85-.36Z" fill="#4a4a4a"/><path d="M18.58,15.85h-2.5a1.2,1.2,0,0,0-.85.36,1.16,1.16,0,0,0-.35.85.88.88,0,0,0,.27.64.91.91,0,0,0,.65.27h3.09V16.16a.31.31,0,0,0-.31-.31Zm-2.5-1h2.5a1.33,1.33,0,0,1,1.32,1.32V19H15.8a2,2,0,0,1-1.36-.56,1.92,1.92,0,0,1-.57-1.36,2.22,2.22,0,0,1,.65-1.57,2.2,2.2,0,0,1,1.56-.65Z" fill="#4a4a4a"/><polygon points="34.74 32.08 34.26 32.08 34.26 25.04 35.23 25.04 35.23 32.08 34.74 32.08 34.74 32.08" fill="#4a4a4a"/><polygon points="37.43 32.23 36.94 32.23 36.94 24.92 37.91 24.92 37.91 32.23 37.43 32.23 37.43 32.23" fill="#4a4a4a"/><polygon points="29.42 32.03 28.94 32.03 28.94 24.99 29.91 24.99 29.91 32.03 29.42 32.03 29.42 32.03" fill="#4a4a4a"/><polygon points="32.11 32.17 31.62 32.17 31.62 24.87 32.59 24.87 32.59 32.17 32.11 32.17 32.11 32.17" fill="#4a4a4a"/><polygon points="40.29 31.97 39.8 31.97 39.8 24.94 40.77 24.94 40.77 31.97 40.29 31.97 40.29 31.97" fill="#4a4a4a"/></g></g></svg>