<svg xmlns="http://www.w3.org/2000/svg" viewBox="0 0 41.82 37.56"><title>travel</title><g id="Layer_2" data-name="Layer 2"><g id="Layer_1-2" data-name="Layer 1"><path d="M3.7,5.88H38.12a3.25,3.25,0,0,1,3.24,3.23V31.5a3.24,3.24,0,0,1-3.24,3.23H3.7A3.24,3.24,0,0,1,.46,31.5V9.11A3.25,3.25,0,0,1,3.7,5.88Z" fill="#fff" fill-rule="evenodd"/><path d="M38.12,35.2H3.7A3.7,3.7,0,0,1,0,31.5V9.11A3.7,3.7,0,0,1,3.7,5.42H38.12a3.7,3.7,0,0,1,3.7,3.69V31.5A3.7,3.7,0,0,1,38.12,35.2ZM3.7,6.34A2.78,2.78,0,0,0,.93,9.11V31.5A2.77,2.77,0,0,0,3.7,34.27H38.12a2.77,2.77,0,0,0,2.77-2.77V9.11a2.78,2.78,0,0,0-2.77-2.77Z" fill="#4a4a4a"/><path d="M7.1,34.82H9.4A1.14,1.14,0,0,1,10.53,36h0A1.14,1.14,0,0,1,9.4,37.1H7.1A1.14,1.14,0,0,1,6,36H6A1.15,1.15,0,0,1,7.1,34.82Z" fill="#fff" fill-rule="evenodd"/><path d="M9.4,37.56H7.1a1.6,1.6,0,1,1,0-3.2H9.4a1.6,1.6,0,0,1,0,3.2ZM7.1,35.29a.67.67,0,0,0-.68.67.68.68,0,0,0,.68.68H9.4a.68.68,0,0,0,.67-.68.67.67,0,0,0-.67-.67Z" fill="#4a4a4a"/><path d="M32.92,34.73h2.3a1.15,1.15,0,0,1,1.14,1.14h0A1.15,1.15,0,0,1,35.22,37h-2.3a1.14,1.14,0,0,1-1.14-1.14h0a1.15,1.15,0,0,1,1.14-1.14Z" fill="#fff" fill-rule="evenodd"/><path d="M35.22,37.47h-2.3a1.6,1.6,0,0,1,0-3.2h2.3a1.6,1.6,0,1,1,0,3.2Zm-2.3-2.27a.68.68,0,0,0-.68.67.69.69,0,0,0,.68.68h2.3a.68.68,0,0,0,.67-.68.67.67,0,0,0-.67-.67Z" fill="#4a4a4a"/><polygon points="8.27 5.88 12.85 5.88 12.85 34.73 8.27 34.73 8.27 5.88 8.27 5.88" fill="#00b4ff" fill-rule="evenodd"/><path d="M13.24,35.13H7.87V5.48h5.37Zm-4.57-.8h3.78v-28H8.67Z" fill="#4a4a4a"/><path d="M29.19,6.25h-18V5.59A5.6,5.6,0,0,1,16.83,0h6.78a5.59,5.59,0,0,1,5.58,5.59Zm-17-.93H28.26A4.67,4.67,0,0,0,23.61.93H16.83A4.66,4.66,0,0,0,12.18,5.32Z" fill="#4a4a4a"/><polygon points="28.81 5.88 33.39 5.88 33.39 34.71 28.81 34.71 28.81 5.88 28.81 5.88" fill="#00b4ff" fill-rule="evenodd"/><path d="M33.79,35.11H28.41V5.48h5.38Zm-4.58-.8H33v-28H29.21Z" fill="#4a4a4a"/><path d="M33.78,25.61l.6.22a1.51,1.51,0,0,1,.89,1.94l-.34.91a1.51,1.51,0,0,1-1.94.88l-.6-.23a1.51,1.51,0,0,1-.88-1.93l.34-.91a1.5,1.5,0,0,1,1.93-.88Z" fill="#fc0" fill-rule="evenodd"/><path d="M33.52,30.12a1.84,1.84,0,0,1-.69-.13l-.6-.22a2,2,0,0,1-1.16-2.53l.34-.91a2,2,0,0,1,2.53-1.16l.61.23a2,2,0,0,1,1.15,2.53l-.34.91a1.93,1.93,0,0,1-1,1.1A2,2,0,0,1,33.52,30.12ZM33.26,26a1.05,1.05,0,0,0-1,.68l-.34.91a1,1,0,0,0,.61,1.34l.61.22a1,1,0,0,0,1.33-.61l.34-.91a1,1,0,0,0-.61-1.33l-.6-.23A1.15,1.15,0,0,0,33.26,26Z" fill="#4a4a4a"/><polygon points="6.28 23.5 10.26 23.5 10.26 27.28 6.28 27.28 6.28 23.5 6.28 23.5" fill="#fc0" fill-rule="evenodd"/><path d="M10.72,27.75H5.82V23h4.9Zm-4-.93h3V24h-3Z" fill="#4a4a4a"/><path d="M8.34,14.65H12.8a1.51,1.51,0,0,1,1.5,1.5v2a1.5,1.5,0,0,1-1.5,1.5H8.34a1.5,1.5,0,0,1-1.5-1.5v-2a1.51,1.51,0,0,1,1.5-1.5Z" fill="#00b4ff" fill-rule="evenodd"/><path d="M12.8,20.09H8.34a2,2,0,0,1-2-2v-2a2,2,0,0,1,2-2H12.8a2,2,0,0,1,2,2v2A2,2,0,0,1,12.8,20.09Zm-4.46-5a1,1,0,0,0-1,1v2a1,1,0,0,0,1,1H12.8a1,1,0,0,0,1-1v-2a1,1,0,0,0-1-1Z" fill="#4a4a4a"/><path d="M28.92,14.45h4.45A1.51,1.51,0,0,1,34.88,16v2a1.51,1.51,0,0,1-1.51,1.5H28.92a1.5,1.5,0,0,1-1.5-1.5V16a1.5,1.5,0,0,1,1.5-1.5Z" fill="#00b4ff" fill-rule="evenodd"/><path d="M33.37,19.89H28.92a2,2,0,0,1-2-2V16a2,2,0,0,1,2-2h4.45a2,2,0,0,1,2,2v2A2,2,0,0,1,33.37,19.89Zm-4.45-5a1,1,0,0,0-1,1v2a1,1,0,0,0,1,1h4.45a1,1,0,0,0,1-1V16a1,1,0,0,0-1-1Z" fill="#4a4a4a"/><polygon points="30.75 11.25 25.82 13.63 27.05 10 30.75 11.25 30.75 11.25" fill="#fc0"/><path d="M25.82,14.09a.46.46,0,0,1-.3-.11.47.47,0,0,1-.14-.5l1.23-3.63a.47.47,0,0,1,.59-.29l3.7,1.25a.47.47,0,0,1,.05.86L26,14.05A.52.52,0,0,1,25.82,14.09Zm1.52-3.5-.72,2.14,2.91-1.4Z" fill="#4a4a4a"/></g></g></svg>